<?xml version="1.0" encoding="UTF-8"?>
<svg version="1.1" xmlns="http://www.w3.org/2000/svg" width="225" height="225">
<path d="M0 0 C74.25 0 148.5 0 225 0 C225 74.25 225 148.5 225 225 C150.75 225 76.5 225 0 225 C0 150.75 0 76.5 0 0 Z " fill="#FDFDFD" transform="translate(0,0)"/>
<path d="M0 0 C7.46179339 6.8742506 11.25376972 15.10962146 12.0546875 25.12109375 C12.38150868 35.59752825 9.43204725 44.57897211 2.5625 52.5625 C-0.87117116 55.51705426 -4.45367038 58.22399027 -8.125 60.875 C-6.47951172 61.45507812 -6.47951172 61.45507812 -4.80078125 62.046875 C-3.34617153 62.57241142 -1.8917545 63.0984814 -0.4375 63.625 C0.28373047 63.87765625 1.00496094 64.1303125 1.74804688 64.390625 C7.4109276 66.45925723 11.44543476 68.73065214 14.875 73.875 C15.33247405 77.29682899 15.24531679 80.73831334 15.25 84.1875 C15.27449219 85.12529297 15.29898438 86.06308594 15.32421875 87.02929688 C15.34865962 92.80956293 14.89184498 96.38765046 10.875 100.875 C-0.39837031 109.79409217 -19.45874738 110.98976985 -33.125 109.875 C-43.72060065 108.59421311 -54.21634473 106.05009773 -62.421875 98.86328125 C-65.00934735 94.3233355 -64.74490861 90.07388231 -64.6875 84.9375 C-64.71134766 83.96103516 -64.73519531 82.98457031 -64.75976562 81.97851562 C-64.75065088 77.49710058 -64.73762838 73.97104634 -61.890625 70.35546875 C-55.90391764 64.98603489 -48.91635056 62.46212697 -41.125 60.875 C-41.99511719 60.34712891 -41.99511719 60.34712891 -42.8828125 59.80859375 C-52.17706771 53.93450176 -57.33548857 47.55967892 -60.7109375 37.05078125 C-62.71157558 26.53799434 -61.41337965 16.75865264 -55.76953125 7.69921875 C-49.78480913 -0.82058673 -42.58103851 -5.88818845 -32.625 -8.875 C-20.36979586 -10.10052041 -9.69670251 -7.81992138 0 0 Z " fill="#090909" transform="translate(198.125,81.125)"/>
<path d="M0 0 C-0.54666004 5.75078321 -1.70289753 10.70252682 -3.6875 16.11328125 C-3.95006592 16.84951218 -4.21263184 17.5857431 -4.4831543 18.34428406 C-5.31443871 20.66985778 -6.15693511 22.99117442 -7 25.3125 C-7.56586516 26.88839883 -8.1309762 28.46456866 -8.6953125 30.04101562 C-9.72577635 32.91749115 -10.76090127 35.7921993 -11.80078125 38.6652832 C-13.48887039 43.35942195 -14.2589757 47.38959124 -14.54077148 52.33862305 C-14.60932343 53.45652725 -14.60932343 53.45652725 -14.67926025 54.59701538 C-14.7781416 56.21744421 -14.87517173 57.83798681 -14.97057915 59.45862389 C-15.1226722 62.03849304 -15.28000259 64.61799541 -15.43873596 67.19746399 C-15.83275122 73.61623458 -16.21889385 80.03547238 -16.60314941 86.45483398 C-16.92689748 91.86231461 -17.25477184 97.26951296 -17.588274 102.67640114 C-17.74174718 105.19051559 -17.88933845 107.7049289 -18.03672791 110.21940613 C-18.31300593 114.81671948 -18.63908606 119.4085963 -19 124 C-19.05588917 124.74788914 -19.11177834 125.49577827 -19.16936111 126.26633072 C-19.34248898 128.44618196 -19.54853885 130.62030067 -19.76586914 132.79614258 C-19.88217178 134.04244949 -19.99847443 135.28875641 -20.11830139 136.5728302 C-21.393569 141.52980598 -23.89670161 144.69254424 -28.3125 147.4375 C-32.07328887 148.22464186 -35.37419884 148.23220586 -39 147 C-42.48157932 144.49386316 -44.64011014 142.07966957 -46 138 C-46.25727794 135.59487457 -46.47084634 133.20410763 -46.6484375 130.79296875 C-46.70549866 130.05602783 -46.76255981 129.31908691 -46.8213501 128.55981445 C-47.01006248 126.10267365 -47.19271342 123.64512529 -47.375 121.1875 C-47.50563823 119.4632931 -47.63633599 117.73909071 -47.76708984 116.01489258 C-48.96169307 100.10470251 -49.99847268 84.18403086 -50.99755859 68.26049805 C-51.05731873 67.317146 -51.11707886 66.37379395 -51.1786499 65.40185547 C-51.28936331 63.65138772 -51.3985931 61.90082511 -51.50592041 60.15014648 C-51.65700607 57.76561271 -51.82674133 55.38301509 -52 53 C-52.04927139 52.17943115 -52.09854279 51.3588623 -52.14930725 50.51342773 C-52.6101761 44.38227845 -54.05734325 39.1468528 -56.23046875 33.4140625 C-56.87448699 31.64197724 -57.51836317 29.86984035 -58.16210938 28.09765625 C-59.17831347 25.34415063 -60.19957069 22.59260497 -61.22436523 19.84228516 C-62.21826351 17.16233907 -63.19383679 14.47624374 -64.16796875 11.7890625 C-64.48138718 10.96612701 -64.7948056 10.14319153 -65.11772156 9.2953186 C-65.39493546 8.52706757 -65.67214935 7.75881653 -65.95776367 6.96728516 C-66.20789719 6.29573395 -66.4580307 5.62418274 -66.71574402 4.93228149 C-67.10124975 2.31173652 -66.4654549 1.17340166 -65 -1 C-46.53417102 -12.71869916 -18.190046 -10.42240473 0 0 Z " fill="#090708" transform="translate(79,43)"/>
<path d="M0 0 C5.9191753 0.08482895 11.25184091 1.74755152 15.640625 5.84375 C19.84360067 10.77137665 20.13920009 14.12756697 20.09765625 20.3828125 C20.0962413 21.17904022 20.09482635 21.97526794 20.09336853 22.79562378 C20.08776345 25.3429538 20.07521014 27.89019647 20.0625 30.4375 C20.05748565 32.16275915 20.05292263 33.88801967 20.04882812 35.61328125 C20.03779237 39.84638791 20.02052436 44.07942914 20 48.3125 C22.64 48.3125 25.28 48.3125 28 48.3125 C28 52.9325 28 57.5525 28 62.3125 C29.65 62.6425 31.3 62.9725 33 63.3125 C33.06960189 72.3357032 33.12286286 81.35881356 33.15543652 90.38222694 C33.17107261 94.5724602 33.19227306 98.76250939 33.22631836 102.95263672 C33.25898553 106.99860817 33.27686848 111.04440288 33.28463173 115.09049606 C33.29016207 116.63182735 33.30096154 118.17314929 33.31719017 119.71440506 C33.33906293 121.87833585 33.34196292 124.04154233 33.34057617 126.20556641 C33.34723801 127.43578522 33.35389984 128.66600403 33.36076355 129.9335022 C32.86694601 134.55871557 31.46987462 137.98042613 28 141.125 C22.49172179 144.39554019 16.05919499 143.57318332 9.85864258 143.60766602 C8.41648543 143.61917992 6.97437071 143.63962291 5.5324707 143.66918945 C3.44192739 143.71203925 1.35264766 143.72805746 -0.73828125 143.73828125 C-1.98649658 143.75286377 -3.23471191 143.76744629 -4.52075195 143.7824707 C-8.74259835 143.21219112 -10.77783333 142.08056476 -14 139.3125 C-16.75298456 134.80210867 -17.36899779 131.45409161 -17.34057617 126.20556641 C-17.34101425 125.52194031 -17.34145233 124.83831421 -17.34190369 124.13397217 C-17.33982799 121.89370295 -17.31655624 119.65419957 -17.29296875 117.4140625 C-17.28736842 115.85322478 -17.28310039 114.29238176 -17.28010559 112.73153687 C-17.26869113 108.63793187 -17.23925366 104.54464989 -17.20599365 100.45117188 C-17.17521912 96.26827361 -17.16158453 92.08532277 -17.14648438 87.90234375 C-17.11438031 79.70558149 -17.06322561 71.50908101 -17 63.3125 C-14.525 62.8175 -14.525 62.8175 -12 62.3125 C-12.01160156 61.31347656 -12.02320312 60.31445312 -12.03515625 59.28515625 C-12.04417969 57.99480469 -12.05320312 56.70445313 -12.0625 55.375 C-12.07410156 54.08722656 -12.08570312 52.79945312 -12.09765625 51.47265625 C-12 48.3125 -12 48.3125 -11 47.3125 C-9.00041636 47.27169217 -6.99954746 47.26995644 -5 47.3125 C-5.00222061 46.73842911 -5.00444122 46.16435822 -5.00672913 45.57289124 C-5.02878257 39.6199709 -5.04390684 33.6670621 -5.05493164 27.71411133 C-5.05997317 25.48982268 -5.06680623 23.26553737 -5.07543945 21.04125977 C-5.08751298 17.85171691 -5.09322996 14.66221771 -5.09765625 11.47265625 C-5.10281754 10.47162369 -5.10797882 9.47059113 -5.11329651 8.43922424 C-5.11337204 7.51834518 -5.11344757 6.59746613 -5.11352539 5.64868164 C-5.115746 4.83371719 -5.11796661 4.01875275 -5.12025452 3.17909241 C-4.8973188 -0.28131912 -3.04874584 0.10056627 0 0 Z " fill="#131110" transform="translate(95,47.6875)"/>
<path d="M0 0 C9.47378614 0.63158574 17.86235704 4.18818714 24.50390625 11.06640625 C30.07436237 17.97712249 33.50171111 25.78333268 33.06640625 34.7421875 C31.73368618 45.30522808 27.03353328 53.30158004 18.703125 59.9296875 C10.36714555 65.56480961 1.64433281 66.4761296 -8.25 65.25 C-17.35431403 62.40490187 -24.29783462 56.41736991 -29.20703125 48.375 C-33.07864445 40.48676937 -33.4590313 32.02738445 -31.66796875 23.46875 C-28.62784525 14.69542556 -22.25506205 7.48766832 -14.0625 3.1875 C-9.32471939 1.11106529 -5.1329686 0.39484374 0 0 Z " fill="#DBEBF9" transform="translate(173.25,75.75)"/>
<path d="M0 0 C9.24 0 18.48 0 28 0 C28.30131936 14.33696964 27.14434827 28.52297092 26.0625 42.8125 C25.78661293 46.51093695 25.51231883 50.20948317 25.23983765 53.90817261 C25.06308033 56.29731379 24.8836184 58.68625657 24.70132446 61.07498169 C24.31373894 66.23642083 23.95970907 71.38650238 23.78857422 76.56005859 C23.74318764 77.80042122 23.74318764 77.80042122 23.69688416 79.06584167 C23.64854452 80.54611294 23.61535042 82.0270101 23.60206604 83.50801086 C23.43964047 88.38948278 22.04621673 91.22297645 19 95 C15.82121306 96.58939347 13.5043228 96.41576711 10 96 C5.42630278 91.89039852 4.38559984 88.71427156 3.95092773 82.66503906 C3.90524658 81.70307617 3.85956543 80.74111328 3.8125 79.75 C3.74554932 78.72874023 3.67859863 77.70748047 3.60961914 76.65527344 C3.3831833 73.10455 3.1918197 69.55275537 3 66 C2.82944024 63.09351201 2.65287938 60.18739374 2.4765625 57.28125 C2.20788871 52.83086208 1.94271371 48.38040624 1.6965332 43.92871094 C1.6194386 42.54100811 1.54221128 41.15331264 1.46484375 39.765625 C1.42746094 39.0943457 1.39007813 38.42306641 1.3515625 37.73144531 C1.11960924 33.69833944 0.81071856 29.67927054 0.4453125 25.65625 C-0.03308865 20.17579056 -0.11603991 14.74802787 -0.0625 9.25 C-0.041875 6.1975 -0.02125 3.145 0 0 Z " fill="#595959" transform="translate(32,90)"/>
<path d="M0 0 C2.625 2.625 2.625 2.625 3.9375 5.625 C3.625 8.625 3.625 8.625 1.375 11.25 C-3.07475657 14.45341272 -8.16749265 16.06633918 -13.375 17.625 C-14.13425781 17.85316406 -14.89351562 18.08132812 -15.67578125 18.31640625 C-29.65364326 21.76862433 -46.93311485 20.7645624 -60 14.6875 C-66.90202703 10.46959459 -66.90202703 10.46959459 -68 6.1875 C-67.24333645 3.08517943 -65.87874825 1.72260236 -63.3515625 -0.17578125 C-46.58123554 -10.35066342 -16.80394917 -10.36411236 0 0 Z " fill="#F9CEA1" transform="translate(205.375,152.375)"/>
<path d="M0 0 C0 6.6 0 13.2 0 20 C0.99 19.67 1.98 19.34 3 19 C3.33 12.73 3.66 6.46 4 0 C5.93875 0.144375 7.8775 0.28875 9.875 0.4375 C11.51082031 0.55931641 11.51082031 0.55931641 13.1796875 0.68359375 C16 1 16 1 18 2 C16 8 14 14 12 20 C15.01638197 19.34948573 15.01638197 19.34948573 15.9831543 17.41772461 C16.26070557 16.75264893 16.53825684 16.08757324 16.82421875 15.40234375 C17.13037109 14.68369141 17.43652344 13.96503906 17.75195312 13.22460938 C18.06068359 12.46986328 18.36941406 11.71511719 18.6875 10.9375 C19.00783203 10.17888672 19.32816406 9.42027344 19.65820312 8.63867188 C20.44850702 6.76317458 21.22552197 4.8820877 22 3 C24.97 3.99 27.94 4.98 31 6 C28.53846905 14.42102692 25.78017011 22.65948968 23 31 C9.14 31 -4.72 31 -19 31 C-20.32 27.431875 -21.64 23.86375 -23 20.1875 C-23.41765625 19.06625732 -23.8353125 17.94501465 -24.265625 16.78979492 C-24.75289062 15.46105347 -24.75289062 15.46105347 -25.25 14.10546875 C-25.58515625 13.19949951 -25.9203125 12.29353027 -26.265625 11.36010742 C-27 9 -27 9 -27 6 C-21.375 3 -21.375 3 -18 3 C-16.99580363 5.4566947 -15.99649499 7.91518353 -15 10.375 C-14.71382812 11.07367188 -14.42765625 11.77234375 -14.1328125 12.4921875 C-12 17.7734375 -12 17.7734375 -12 20 C-11.01 19.67 -10.02 19.34 -9 19 C-10.94379931 13.00804764 -10.94379931 13.00804764 -13.1875 7.125 C-14 5 -14 5 -14 2 C-8.7148149 0.27422527 -5.96472769 0 0 0 Z " fill="#F477B2" transform="translate(44,39)"/>
<path d="M0 0 C0.94746094 0.48919922 0.94746094 0.48919922 1.9140625 0.98828125 C20.76676176 10.1973087 42.24586075 10.67491463 62 4 C65.10639516 2.79647517 68.01689271 1.49155364 71 0 C71.59989288 7.07873594 71.59989288 7.07873594 69.25 10.6875 C58.73064335 18.17242685 47.88236227 19.19321288 35.375 19.25 C34.26253906 19.270625 33.15007812 19.29125 32.00390625 19.3125 C20.18324236 19.36754384 10.38508412 17.44564868 1 10 C0 9 0 9 -0.09765625 6.93359375 C-0.08605469 6.10988281 -0.07445312 5.28617188 -0.0625 4.4375 C-0.05347656 3.61121094 -0.04445312 2.78492188 -0.03515625 1.93359375 C-0.02355469 1.29550781 -0.01195312 0.65742188 0 0 Z " fill="#474747" transform="translate(138,167)"/>
<path d="M0 0 C13.2 0 26.4 0 40 0 C40 5.28 40 10.56 40 16 C26.8 16 13.6 16 0 16 C0 10.72 0 5.44 0 0 Z " fill="#595959" transform="translate(83,115)"/>
<path d="M0 0 C13.53 0 27.06 0 41 0 C41 3.96 41 7.92 41 12 C36.4616121 16.5383879 35.84571746 16.51522228 29.78515625 16.56640625 C28.74602333 16.57570412 28.74602333 16.57570412 27.68589783 16.58518982 C26.22428794 16.59227657 24.76259713 16.58913373 23.30102539 16.57641602 C21.0722082 16.56256035 18.84760252 16.59661125 16.61914062 16.63476562 C15.19531148 16.63571705 13.77147711 16.63385671 12.34765625 16.62890625 C10.41418335 16.6299939 10.41418335 16.6299939 8.44165039 16.63110352 C5 16 5 16 2.04077148 14.14819336 C0 11 0 11 0 0 Z " fill="#585858" transform="translate(82,170)"/>
<path d="M0 0 C3.96 1.98 7.92 3.96 12 6 C13.32 6.33 14.64 6.66 16 7 C16 16.24 16 25.48 16 35 C10.72 35 5.44 35 0 35 C0 23.45 0 11.9 0 0 Z " fill="#FE7BB8" transform="translate(95,60)"/>
<path d="M0 0 C12.54 0 25.08 0 38 0 C36.68 3.96 35.36 7.92 34 12 C23.77 12 13.54 12 3 12 C2.01 8.04 1.02 4.08 0 0 Z " fill="#F4CA9E" transform="translate(27,74)"/>
<path d="M0 0 C3.96 0 7.92 0 12 0 C12 9.9 12 19.8 12 30 C8.04 30 4.08 30 0 30 C0 20.1 0 10.2 0 0 Z " fill="#F5CA9E" transform="translate(97,135)"/>
<path d="M0 0 C3.63 0 7.26 0 11 0 C11 9.9 11 19.8 11 30 C7.37 30 3.74 30 0 30 C0 20.1 0 10.2 0 0 Z " fill="#ECC499" transform="translate(82,135)"/>
<path d="M0 0 C3.3 0 6.6 0 10 0 C10 9.9 10 19.8 10 30 C6.7 30 3.4 30 0 30 C0 20.1 0 10.2 0 0 Z " fill="#F5CC9F" transform="translate(113,135)"/>
<path d="M0 0 C9.9 0 19.8 0 30 0 C30 3.3 30 6.6 30 10 C20.1 10 10.2 10 0 10 C0 6.7 0 3.4 0 0 Z " fill="#FDD2A4" transform="translate(88,100)"/>
<path d="M0 0 C7.92 0 15.84 0 24 0 C23.67 1.32 23.34 2.64 23 4 C15.41 4 7.82 4 0 4 C0 2.68 0 1.36 0 0 Z " fill="#010101" transform="translate(91,176)"/>
<path d="M0 0 C7.92 0 15.84 0 24 0 C23.67 1.32 23.34 2.64 23 4 C15.74 4 8.48 4 1 4 C0.67 2.68 0.34 1.36 0 0 Z " fill="#020202" transform="translate(91,121)"/>
<path d="M0 0 C6.13396758 1.16333868 9.60854155 2.50143281 14 7 C14.875 9.3125 14.875 9.3125 15 11 C9.07287965 10.43551235 5.07879233 8.35596464 1.125 3.875 C0 2 0 2 0 0 Z " fill="#E75B88" transform="translate(96,52)"/>
</svg>
